<svg width="500" height="500" viewBox="0 0 132.292 132.292" xmlns="http://www.w3.org/2000/svg"><path style="fill:#036;fill-opacity:1;stroke:none;stroke-width:.168336;stroke-linejoin:round;paint-order:markers fill stroke" d="M4.346 31.81h132.292v132.292H4.346z" transform="translate(-4.346 -31.81)"/><path style="fill:#09c;fill-opacity:1;stroke:none;stroke-width:.176389;stroke-linejoin:round;paint-order:markers fill stroke" d="m126.923 161.789 18.84 62.162-38.192-52.54-14.766 63.253-6.804-64.597-44.415 47.397 26.407-59.345L5.83 176.958l52.54-38.191L-4.882 124l64.597-6.804-47.396-44.415 59.345 26.406-18.84-62.162 38.192 52.54 14.766-63.253 6.804 64.597L157 43.514l-26.407 59.344 62.163-18.839-52.54 38.191 63.253 14.766-64.597 6.804 47.396 44.415z" transform="matrix(.57874 .11703 -.11703 .57874 23.952 -20.993)"/></svg>